<?xml version="1.0" standalone="no"?>
<!DOCTYPE svg PUBLIC "-//W3C//DTD SVG 20010904//EN"
 "http://www.w3.org/TR/2001/REC-SVG-20010904/DTD/svg10.dtd">
<svg version="1.0" xmlns="http://www.w3.org/2000/svg"
 width="300.000000pt" height="300.000000pt" viewBox="0 0 300.000000 300.000000"
 preserveAspectRatio="xMidYMid meet">
<metadata>
Created by potrace 1.14, written by Peter Selinger 2001-2017
</metadata>
<g transform="translate(0.000000,300.000000) scale(0.100000,-0.100000)"
fill="#000000" stroke="none">
<path d="M1355 2974 c-174 -19 -389 -81 -535 -154 -270 -136 -522 -386 -656
-652 -298 -592 -178 -1299 299 -1755 180 -171 395 -294 632 -358 191 -52 237
-55 1103 -55 l802 0 0 44 0 45 -842 4 c-830 3 -844 4 -943 26 -294 66 -506
181 -711 385 -205 206 -324 426 -385 716 -31 147 -31 391 -1 536 63 293 182
515 386 719 120 119 229 198 372 269 605 297 1336 117 1741 -430 116 -158 214
-385 248 -579 9 -49 18 -146 20 -215 l4 -125 43 0 43 0 -2 133 c-9 692 -513
1289 -1200 1422 -104 20 -332 33 -418 24z"/>
<path d="M1324 2780 c-306 -43 -562 -174 -774 -396 -144 -150 -250 -331 -306
-522 -222 -764 271 -1538 1056 -1657 77 -12 249 -15 898 -15 l802 0 0 45 0 45
-819 0 c-888 0 -901 1 -1066 56 -187 62 -339 156 -481 298 -238 239 -354 519
-354 856 0 214 40 379 138 564 212 402 617 646 1072 646 328 0 624 -122 856
-354 228 -228 354 -528 354 -842 l0 -104 47 0 46 0 -6 138 c-16 353 -151 653
-403 893 -173 165 -369 271 -604 325 -117 27 -348 40 -456 24z"/>
<path d="M1355 2409 c-330 -48 -621 -284 -735 -597 -127 -347 -45 -717 215
-977 144 -144 327 -237 523 -265 39 -6 400 -10 855 -10 l787 0 0 45 0 44 -827
3 c-757 3 -833 5 -887 21 -173 51 -264 105 -386 227 -124 124 -181 222 -227
391 -24 89 -24 309 0 398 46 169 103 267 227 391 165 165 365 250 590 250 225
0 425 -85 590 -250 65 -65 108 -119 137 -170 76 -137 118 -301 111 -440 l-3
-70 48 0 47 0 0 69 c0 581 -499 1021 -1065 940z"/>
<path d="M1301 2209 c-330 -86 -552 -375 -552 -719 0 -346 217 -627 557 -722
78 -22 89 -22 887 -26 l807 -3 0 50 0 50 -822 3 -823 3 -73 27 c-104 38 -175
83 -251 159 -76 76 -122 147 -159 251 -24 66 -27 87 -27 208 0 121 3 142 27
208 72 200 224 348 423 414 102 33 289 33 390 -1 201 -67 353 -216 421 -413
20 -56 27 -101 31 -190 l6 -118 43 0 44 0 0 103 c0 173 -47 312 -154 453 -28
38 -78 90 -111 117 -78 63 -222 134 -310 152 -100 21 -263 18 -354 -6z"/>
<path d="M1420 2039 c-163 -17 -317 -118 -405 -264 -55 -92 -77 -173 -77 -285
0 -248 149 -450 392 -533 65 -22 70 -22 868 -25 l802 -3 0 46 0 45 -782 1
c-707 0 -789 2 -849 17 -347 91 -464 527 -209 782 181 181 472 183 654 5 30
-30 69 -79 86 -108 39 -68 64 -182 57 -258 l-5 -59 44 0 44 0 1 43 c6 190 -41
317 -161 437 -125 125 -278 178 -460 159z"/>
<path d="M1383 1846 c-104 -34 -185 -106 -232 -205 -22 -48 -26 -69 -26 -151
0 -83 4 -103 28 -156 36 -77 104 -145 182 -181 l60 -28 803 -3 802 -2 0 45 0
45 -773 0 c-890 0 -844 -4 -933 85 -41 41 -56 65 -70 110 -39 135 17 268 141
333 41 22 63 26 125 27 112 0 190 -47 245 -147 27 -48 30 -62 29 -140 l0 -88
42 0 c41 0 43 1 50 36 30 159 -63 332 -214 402 -69 31 -192 40 -259 18z"/>
</g>
</svg>
