<?xml version="1.0" standalone="no"?>
<!DOCTYPE svg PUBLIC "-//W3C//DTD SVG 20010904//EN"
 "http://www.w3.org/TR/2001/REC-SVG-20010904/DTD/svg10.dtd">
<svg version="1.0" xmlns="http://www.w3.org/2000/svg"
 width="300.000000pt" height="300.000000pt" viewBox="0 0 300.000000 300.000000"
 preserveAspectRatio="xMidYMid meet">
<metadata>
Created by potrace 1.14, written by Peter Selinger 2001-2017
</metadata>
<g transform="translate(0.000000,300.000000) scale(0.100000,-0.100000)"
fill="#000000" stroke="none">
<path d="M1330 2969 c-174 -19 -391 -85 -540 -167 -412 -224 -683 -600 -767
-1062 -26 -141 -23 -382 5 -525 120 -607 564 -1054 1178 -1187 96 -21 124 -22
947 -25 l847 -4 0 45 0 45 -847 4 c-821 3 -851 4 -941 24 -191 44 -355 114
-512 218 -97 64 -301 268 -365 365 -108 163 -183 344 -221 535 -27 136 -25
396 5 535 59 278 183 504 385 706 356 355 834 488 1326 368 243 -58 460 -182
646 -368 261 -262 393 -567 411 -949 l6 -128 41 3 c41 3 41 3 44 48 6 75 -17
282 -44 391 -64 267 -197 502 -394 699 -248 248 -558 395 -909 430 -117 11
-179 11 -301 -1z"/>
<path d="M1146 2732 c-3 -5 1 -9 9 -9 8 0 12 4 9 9 -3 4 -7 8 -9 8 -2 0 -6 -4
-9 -8z"/>
<path d="M2105 2579 c-4 -6 -5 -12 -2 -15 2 -3 7 2 10 11 7 17 1 20 -8 4z"/>
<path d="M1385 2410 c-380 -40 -703 -327 -797 -706 -31 -130 -30 -314 5 -445
86 -327 335 -577 666 -667 l96 -26 823 -4 822 -3 0 45 0 45 -832 3 c-936 4
-868 -2 -1043 82 -218 104 -388 308 -452 546 -25 92 -25 329 1 420 66 241 231
440 450 544 146 70 198 81 371 80 142 0 155 -2 245 -32 276 -93 462 -279 551
-552 26 -78 32 -116 37 -217 l5 -123 37 0 c38 0 38 0 45 48 3 26 1 88 -5 139
-50 438 -390 777 -824 823 -100 11 -100 11 -201 0z"/>
<path d="M1307 2209 c-212 -52 -389 -198 -488 -404 -55 -114 -72 -203 -66
-350 7 -173 47 -283 151 -421 66 -88 148 -154 261 -210 152 -75 129 -74 1033
-74 l802 0 0 45 0 44 -822 3 c-821 3 -823 3 -888 25 -199 68 -361 232 -423
428 -32 100 -32 290 0 390 31 98 87 189 163 265 76 75 148 120 252 158 66 24
87 27 208 27 121 0 142 -3 208 -27 104 -37 175 -83 251 -159 125 -125 181
-255 189 -436 l5 -113 43 0 44 0 0 91 c0 219 -98 433 -262 568 -78 64 -219
134 -315 155 -98 22 -248 20 -346 -5z"/>
<path d="M1398 1953 c7 -3 16 -2 19 1 4 3 -2 6 -13 5 -11 0 -14 -3 -6 -6z"/>
<path d="M1568 1953 c7 -3 16 -2 19 1 4 3 -2 6 -13 5 -11 0 -14 -3 -6 -6z"/>
<path d="M1383 1846 c-104 -34 -185 -106 -232 -205 -22 -48 -26 -69 -26 -151
0 -87 3 -101 32 -161 39 -79 102 -140 181 -177 l57 -27 803 -3 802 -2 0 45 0
45 -778 0 c-889 0 -839 -5 -928 84 -114 114 -113 278 1 393 113 112 278 111
391 -2 64 -64 90 -135 81 -227 l-5 -58 44 0 c39 0 44 3 50 26 4 14 4 57 2 95
-10 132 -93 250 -216 307 -69 31 -192 40 -259 18z"/>
<path d="M1021 1574 c0 -11 3 -14 6 -6 3 7 2 16 -1 19 -3 4 -6 -2 -5 -13z"/>
<path d="M1950 1408 c0 -4 21 -8 48 -7 52 1 48 6 -10 11 -21 2 -38 0 -38 -4z"/>
<path d="M1080 1116 c0 -2 8 -10 18 -17 15 -13 16 -12 3 4 -13 16 -21 21 -21
13z"/>
<path d="M816 402 c-3 -5 1 -9 9 -9 8 0 12 4 9 9 -3 4 -7 8 -9 8 -2 0 -6 -4
-9 -8z"/>
</g>
</svg>
